<svg width="24" height="24" viewBox="0 0 24 24" fill="none" xmlns="http://www.w3.org/2000/svg">
  <path d="M7 13H1V1H19V9.171" stroke="currentColor" stroke-width="2" stroke-miterlimit="10" stroke-linecap="round"
    stroke-linejoin="round" />
  <path d="M11 12V16C11 17.657 13.686 19 17 19C20.314 19 23 17.657 23 16V12" stroke="currentColor" stroke-width="2"
    stroke-miterlimit="10" stroke-linecap="round" stroke-linejoin="round" />
  <path d="M11 16V20C11 21.657 13.686 23 17 23C20.314 23 23 21.657 23 20V16" stroke="currentColor" stroke-width="2"
    stroke-miterlimit="10" stroke-linecap="round" stroke-linejoin="round" />
  <path
    d="M17 15C20.3137 15 23 13.6569 23 12C23 10.3431 20.3137 9 17 9C13.6863 9 11 10.3431 11 12C11 13.6569 13.6863 15 17 15Z"
    stroke="currentColor" stroke-width="2" stroke-miterlimit="10" stroke-linecap="round" stroke-linejoin="round" />
  <path d="M10 8C10.5523 8 11 7.55228 11 7C11 6.44772 10.5523 6 10 6C9.44772 6 9 6.44772 9 7C9 7.55228 9.44772 8 10 8Z"
    stroke="currentColor" stroke-width="2" stroke-miterlimit="10" stroke-linecap="round" stroke-linejoin="round" />
  <path
    d="M10.5 7C10.5 7.27614 10.2761 7.5 10 7.5C9.72386 7.5 9.5 7.27614 9.5 7C9.5 6.72386 9.72386 6.5 10 6.5C10.2761 6.5 10.5 6.72386 10.5 7Z"
    fill="currentColor" stroke="currentColor" />
</svg>
