<svg width="65" height="65" viewBox="0 0 65 65" fill="none" xmlns="http://www.w3.org/2000/svg">
  <path
    d="M16.5 2.5H4.5C3.96957 2.5 3.46086 2.71071 3.08579 3.08579C2.71071 3.46086 2.5 3.96957 2.5 4.5V16.5C2.5 17.0304 2.71071 17.5391 3.08579 17.9142C3.46086 18.2893 3.96957 18.5 4.5 18.5H16.5C17.0304 18.5 17.5391 18.2893 17.9142 17.9142C18.2893 17.5391 18.5 17.0304 18.5 16.5V4.5C18.5 3.96957 18.2893 3.46086 17.9142 3.08579C17.5391 2.71071 17.0304 2.5 16.5 2.5Z"
    fill="currentColor" />
  <path
    d="M38.5 2.5H26.5C25.9696 2.5 25.4609 2.71071 25.0858 3.08579C24.7107 3.46086 24.5 3.96957 24.5 4.5V16.5C24.5 17.0304 24.7107 17.5391 25.0858 17.9142C25.4609 18.2893 25.9696 18.5 26.5 18.5H38.5C39.0304 18.5 39.5391 18.2893 39.9142 17.9142C40.2893 17.5391 40.5 17.0304 40.5 16.5V4.5C40.5 3.96957 40.2893 3.46086 39.9142 3.08579C39.5391 2.71071 39.0304 2.5 38.5 2.5Z"
    fill="currentColor" />
  <path
    d="M60.5 2.5H48.5C47.9696 2.5 47.4609 2.71071 47.0858 3.08579C46.7107 3.46086 46.5 3.96957 46.5 4.5V16.5C46.5 17.0304 46.7107 17.5391 47.0858 17.9142C47.4609 18.2893 47.9696 18.5 48.5 18.5H60.5C61.0304 18.5 61.5391 18.2893 61.9142 17.9142C62.2893 17.5391 62.5 17.0304 62.5 16.5V4.5C62.5 3.96957 62.2893 3.46086 61.9142 3.08579C61.5391 2.71071 61.0304 2.5 60.5 2.5Z"
    fill="currentColor" />
  <path
    d="M16.5 24.5H4.5C3.96957 24.5 3.46086 24.7107 3.08579 25.0858C2.71071 25.4609 2.5 25.9696 2.5 26.5V38.5C2.5 39.0304 2.71071 39.5391 3.08579 39.9142C3.46086 40.2893 3.96957 40.5 4.5 40.5H16.5C17.0304 40.5 17.5391 40.2893 17.9142 39.9142C18.2893 39.5391 18.5 39.0304 18.5 38.5V26.5C18.5 25.9696 18.2893 25.4609 17.9142 25.0858C17.5391 24.7107 17.0304 24.5 16.5 24.5Z"
    fill="currentColor" />
  <path
    d="M38.5 24.5H26.5C25.9696 24.5 25.4609 24.7107 25.0858 25.0858C24.7107 25.4609 24.5 25.9696 24.5 26.5V38.5C24.5 39.0304 24.7107 39.5391 25.0858 39.9142C25.4609 40.2893 25.9696 40.5 26.5 40.5H38.5C39.0304 40.5 39.5391 40.2893 39.9142 39.9142C40.2893 39.5391 40.5 39.0304 40.5 38.5V26.5C40.5 25.9696 40.2893 25.4609 39.9142 25.0858C39.5391 24.7107 39.0304 24.5 38.5 24.5Z"
    fill="currentColor" />
  <path
    d="M60.5 24.5H48.5C47.9696 24.5 47.4609 24.7107 47.0858 25.0858C46.7107 25.4609 46.5 25.9696 46.5 26.5V38.5C46.5 39.0304 46.7107 39.5391 47.0858 39.9142C47.4609 40.2893 47.9696 40.5 48.5 40.5H60.5C61.0304 40.5 61.5391 40.2893 61.9142 39.9142C62.2893 39.5391 62.5 39.0304 62.5 38.5V26.5C62.5 25.9696 62.2893 25.4609 61.9142 25.0858C61.5391 24.7107 61.0304 24.5 60.5 24.5Z"
    fill="currentColor" />
  <path
    d="M16.5 46.5H4.5C3.96957 46.5 3.46086 46.7107 3.08579 47.0858C2.71071 47.4609 2.5 47.9696 2.5 48.5V60.5C2.5 61.0304 2.71071 61.5391 3.08579 61.9142C3.46086 62.2893 3.96957 62.5 4.5 62.5H16.5C17.0304 62.5 17.5391 62.2893 17.9142 61.9142C18.2893 61.5391 18.5 61.0304 18.5 60.5V48.5C18.5 47.9696 18.2893 47.4609 17.9142 47.0858C17.5391 46.7107 17.0304 46.5 16.5 46.5Z"
    fill="currentColor" />
  <path
    d="M38.5 46.5H26.5C25.9696 46.5 25.4609 46.7107 25.0858 47.0858C24.7107 47.4609 24.5 47.9696 24.5 48.5V60.5C24.5 61.0304 24.7107 61.5391 25.0858 61.9142C25.4609 62.2893 25.9696 62.5 26.5 62.5H38.5C39.0304 62.5 39.5391 62.2893 39.9142 61.9142C40.2893 61.5391 40.5 61.0304 40.5 60.5V48.5C40.5 47.9696 40.2893 47.4609 39.9142 47.0858C39.5391 46.7107 39.0304 46.5 38.5 46.5Z"
    fill="currentColor" />
  <path
    d="M60.5 46.5H48.5C47.9696 46.5 47.4609 46.7107 47.0858 47.0858C46.7107 47.4609 46.5 47.9696 46.5 48.5V60.5C46.5 61.0304 46.7107 61.5391 47.0858 61.9142C47.4609 62.2893 47.9696 62.5 48.5 62.5H60.5C61.0304 62.5 61.5391 62.2893 61.9142 61.9142C62.2893 61.5391 62.5 61.0304 62.5 60.5V48.5C62.5 47.9696 62.2893 47.4609 61.9142 47.0858C61.5391 46.7107 61.0304 46.5 60.5 46.5Z"
    fill="currentColor" />
</svg>
