<svg width="120" height="28" viewBox="0 0 120 28" fill="none" xmlns="http://www.w3.org/2000/svg">
  <path
    d="M18.7372 7.76562C18.1705 3.0625 14.6108 0.357954 9.89773 0.357954C4.51847 0.357954 0.411932 4.15625 0.411932 10.8182C0.411932 17.4602 4.44886 21.2784 9.89773 21.2784C15.1179 21.2784 18.2699 17.8082 18.7372 14.0597L14.3821 14.0398C13.9744 16.2173 12.2642 17.4702 9.96733 17.4702C6.875 17.4702 4.77699 15.1733 4.77699 10.8182C4.77699 6.58239 6.84517 4.16619 9.99716 4.16619C12.3537 4.16619 14.054 5.52841 14.3821 7.76562H18.7372ZM26.1001 21.2884C28.3572 21.2884 29.8189 20.304 30.5646 18.8821H30.6839V21H34.701V10.6989C34.701 7.05966 31.6186 5.52841 28.218 5.52841C24.5589 5.52841 22.1527 7.27841 21.5661 10.0625L25.4837 10.3807C25.772 9.36648 26.6768 8.62074 28.1982 8.62074C29.6399 8.62074 30.4652 9.34659 30.4652 10.5994V10.6591C30.4652 11.6435 29.4212 11.7727 26.7663 12.0312C23.7436 12.3097 21.0291 13.3239 21.0291 16.7344C21.0291 19.7571 23.1868 21.2884 26.1001 21.2884ZM27.3132 18.3651C26.0107 18.3651 25.076 17.7585 25.076 16.5952C25.076 15.402 26.0604 14.8153 27.5518 14.6065C28.4766 14.4773 29.9879 14.2585 30.495 13.9205V15.5412C30.495 17.142 29.1726 18.3651 27.3132 18.3651ZM50.6946 10.0824C50.3168 7.26847 48.0497 5.52841 44.1918 5.52841C40.2841 5.52841 37.7088 7.33807 37.7188 10.2812C37.7088 12.5682 39.1506 14.0497 42.1335 14.6463L44.7784 15.1733C46.1108 15.4418 46.7173 15.929 46.7372 16.6946C46.7173 17.5994 45.733 18.2457 44.2514 18.2457C42.7401 18.2457 41.7358 17.5994 41.4773 16.3565L37.3111 16.5753C37.7088 19.4986 40.1946 21.2983 44.2415 21.2983C48.1989 21.2983 51.0327 19.2798 51.0426 16.267C51.0327 14.0597 49.5909 12.7372 46.6278 12.1307L43.8636 11.5739C42.4418 11.2656 41.9148 10.7784 41.9247 10.0426C41.9148 9.12784 42.9489 8.53125 44.2614 8.53125C45.733 8.53125 46.608 9.33665 46.8168 10.321L50.6946 10.0824ZM57.9457 12.1705C57.9556 10.2017 59.1587 9.0483 60.8888 9.0483C62.609 9.0483 63.6232 10.152 63.6133 12.0312V21H67.8491V11.2756C67.859 7.69602 65.7511 5.52841 62.5692 5.52841C60.2525 5.52841 58.7013 6.62216 58.0053 8.42188H57.8263V0.636363H53.7099V21H57.9457V12.1705ZM71.2621 21H75.4382V18.554H75.6271C76.2138 19.8267 77.4964 21.2486 79.9624 21.2486C83.4425 21.2486 86.157 18.4943 86.157 13.3835C86.157 8.13352 83.3232 5.52841 79.9723 5.52841C77.4169 5.52841 76.1939 7.04972 75.6271 8.29261H75.4979V0.636363H71.2621V21ZM75.4084 13.3636C75.4084 10.6392 76.5618 8.89915 78.62 8.89915C80.718 8.89915 81.8317 10.7188 81.8317 13.3636C81.8317 16.0284 80.6982 17.8778 78.62 17.8778C76.5817 17.8778 75.4084 16.0881 75.4084 13.3636ZM93.3384 21.2884C95.5955 21.2884 97.0572 20.304 97.8029 18.8821H97.9222V21H101.939V10.6989C101.939 7.05966 98.8569 5.52841 95.4563 5.52841C91.7972 5.52841 89.391 7.27841 88.8043 10.0625L92.7219 10.3807C93.0103 9.36648 93.9151 8.62074 95.4364 8.62074C96.8782 8.62074 97.7035 9.34659 97.7035 10.5994V10.6591C97.7035 11.6435 96.6594 11.7727 94.0046 12.0312C90.9819 12.3097 88.2674 13.3239 88.2674 16.7344C88.2674 19.7571 90.4251 21.2884 93.3384 21.2884ZM94.5515 18.3651C93.2489 18.3651 92.3143 17.7585 92.3143 16.5952C92.3143 15.402 93.2987 14.8153 94.7901 14.6065C95.7148 14.4773 97.2262 14.2585 97.7333 13.9205V15.5412C97.7333 17.142 96.4109 18.3651 94.5515 18.3651ZM112.106 27.0455C116.471 27.0455 119.574 25.0568 119.574 21.1491V5.72727H115.368V8.29261H115.208C114.642 7.04972 113.399 5.52841 110.843 5.52841C107.493 5.52841 104.659 8.13352 104.659 13.3338C104.659 18.4148 107.413 20.7812 110.853 20.7812C113.289 20.7812 114.652 19.5582 115.208 18.2955H115.387V21.0895C115.387 23.1875 114.045 24.0028 112.206 24.0028C110.336 24.0028 109.392 23.1875 109.044 22.2628L105.126 22.7898C105.633 25.196 107.99 27.0455 112.106 27.0455ZM112.196 17.5994C110.118 17.5994 108.984 15.9489 108.984 13.3139C108.984 10.7188 110.098 8.89915 112.196 8.89915C114.254 8.89915 115.407 10.6392 115.407 13.3139C115.407 16.0085 114.234 17.5994 112.196 17.5994Z"
    fill="currentColor" />
</svg>
