<svg width="24" height="24" viewBox="0 0 24 24" fill="none" xmlns="http://www.w3.org/2000/svg">
  <path
    d="M19 11V8C19 6.14348 18.2625 4.36301 16.9497 3.05025C15.637 1.7375 13.8565 1 12 1C10.1435 1 8.36301 1.7375 7.05025 3.05025C5.7375 4.36301 5 6.14348 5 8V11C5 14.3 2 15.1 2 17C2 18.7 5.9 20 12 20C18.1 20 22 18.7 22 17C22 15.1 19 14.3 19 11Z"
    stroke="currentColor" stroke-width="2" stroke-miterlimit="10" stroke-linecap="square" />
  <path
    d="M12 21.9999C10.989 21.9999 10.039 21.9659 9.145 21.8999C9.3356 22.5079 9.7153 23.0391 10.2288 23.4163C10.7423 23.7935 11.3629 23.9969 12 23.9969C12.6372 23.9969 13.2577 23.7935 13.7712 23.4163C14.2847 23.0391 14.6644 22.5079 14.855 21.8999C13.961 21.9659 13.011 21.9999 12 21.9999Z"
    fill="currentColor" />
</svg>
