<svg width="91" height="90" viewBox="0 0 91 90" fill="none" xmlns="http://www.w3.org/2000/svg">
  <circle opacity="0.1" cx="45.5" cy="45" r="45" fill="#CC3366" />
  <circle cx="45.5" cy="45" r="30" fill="#CC3366" />
  <path
    d="M49.639 47.407L47.284 49.728C46.0562 48.9873 44.9157 48.1108 43.884 47.115C42.89 46.0819 42.014 44.9416 41.272 43.715L43.591 41.36C43.7302 41.2176 43.8243 41.0372 43.8613 40.8415C43.8983 40.6457 43.8766 40.4434 43.799 40.26L41.382 34.614C41.2867 34.3922 41.115 34.2119 40.8981 34.1058C40.6812 33.9998 40.4335 33.975 40.2 34.036L35.756 35.209C35.5339 35.266 35.338 35.3971 35.2005 35.5805C35.063 35.764 34.9923 35.9889 35 36.218C35.2823 41.3786 37.4282 46.2612 41.039 49.959C44.7376 53.5712 49.6218 55.7178 54.784 56C55.0131 56.0072 55.2378 55.9362 55.4213 55.7989C55.6049 55.6615 55.7362 55.4659 55.794 55.244L56.966 50.804C57.0281 50.57 57.004 50.3214 56.8981 50.1037C56.7921 49.8859 56.6114 49.7136 56.389 49.618L50.748 47.2C50.5635 47.1201 50.3594 47.0971 50.1618 47.134C49.9642 47.1709 49.7822 47.266 49.639 47.407Z"
    fill="white" />
</svg>
