<svg width="24" height="24" viewBox="0 0 24 24" fill="none" xmlns="http://www.w3.org/2000/svg">
  <g clip-path="url(#clip0_18137_777)">
    <path
      d="M23.0608 20.939L17.3278 15.206C18.6404 13.3613 19.2119 11.0907 18.9292 8.84438C18.6464 6.59807 17.5299 4.54 15.801 3.07816C14.0722 1.61632 11.8572 0.857418 9.59509 0.951902C7.33302 1.04639 5.18902 1.98735 3.58809 3.58828C1.98717 5.1892 1.0462 7.3332 0.951719 9.59528C0.857235 11.8574 1.61613 14.0724 3.07798 15.8012C4.53982 17.5301 6.59788 18.6465 8.8442 18.9293C11.0905 19.2121 13.3611 18.6406 15.2058 17.328L20.9388 23.061L23.0608 20.939ZM2.99983 10C2.99983 8.61554 3.41037 7.26216 4.17954 6.11102C4.94871 4.95987 6.04196 4.06267 7.32104 3.53285C8.60012 3.00304 10.0076 2.86442 11.3655 3.13451C12.7233 3.40461 13.9706 4.07129 14.9496 5.05026C15.9285 6.02923 16.5952 7.27651 16.8653 8.63438C17.1354 9.99224 16.9968 11.3997 16.467 12.6788C15.9372 13.9579 15.04 15.0511 13.8888 15.8203C12.7377 16.5895 11.3843 17 9.99983 17C8.14396 16.9979 6.36471 16.2597 5.05242 14.9474C3.74012 13.6351 3.00194 11.8559 2.99983 10V10Z"
      fill="#717791" />
  </g>
  <defs>
    <clipPath id="clip0_18137_777">
      <rect width="24" height="24" fill="white" />
    </clipPath>
  </defs>
</svg>
