<svg width="32" height="32" viewBox="0 0 32 32" fill="none" xmlns="http://www.w3.org/2000/svg">
  <g clip-path="url(#clip0_52985_40750)">
    <path d="M12.284 19.053L7.404 22.118C6.53 22.667 6 23.626 6 24.658V27.18" stroke="#CC3366" stroke-width="2"
      stroke-miterlimit="10" />
    <path d="M19.716 19.053L24.596 22.118C25.47 22.667 26 23.626 26 24.658V27.18" stroke="#CC3366" stroke-width="2"
      stroke-miterlimit="10" />
    <path d="M10 13C10 9.686 12.686 7 16 7C19.314 7 22 9.686 22 13C22 16.314 19.583 21 16 21C12.458 21 10 16.314 10 13Z"
      stroke="#CC3366" stroke-width="2" stroke-miterlimit="10" stroke-linecap="square" />
    <path
      d="M16 31C24.2843 31 31 24.2843 31 16C31 7.71573 24.2843 1 16 1C7.71573 1 1 7.71573 1 16C1 24.2843 7.71573 31 16 31Z"
      stroke="#384059" stroke-width="2" stroke-miterlimit="10" stroke-linecap="square" />
  </g>
  <defs>
    <clipPath id="clip0_52985_40750">
      <rect width="32" height="32" fill="white" />
    </clipPath>
  </defs>
</svg>
